<svg xmlns="http://www.w3.org/2000/svg" xmlns:xlink="http://www.w3.org/1999/xlink" preserveAspectRatio="xMidYMid" width="125" height="56" viewBox="0 0 125 56">
  <defs>
    <style>
      .cls-1, .cls-2 {
        fill: #fff;
        fill-rule: evenodd;
      }

      .cls-2 {
        stroke: #fff;
        stroke-linejoin: round;
        stroke-width: 5px;
        fill-opacity: 0;
      }
    </style>
  </defs>
  <path d="M115.753,55.457 C110.872,55.457 107.379,52.143 107.379,47.195 C107.379,42.112 110.872,38.799 115.753,38.799 C120.701,38.709 124.194,42.023 124.194,47.105 C124.194,52.053 120.701,55.367 115.753,55.457 ZM115.776,41.351 C112.507,41.351 110.335,43.858 110.335,47.016 C110.335,50.396 112.507,52.904 115.776,52.904 C119.067,52.904 121.239,50.396 121.239,47.016 C121.239,43.858 119.067,41.351 115.776,41.351 ZM102.124,55.054 L99.302,55.054 L99.302,41.754 L94.444,41.754 L94.444,39.202 L106.982,39.202 L106.982,41.754 L102.124,41.754 L102.124,55.054 ZM87.142,52.904 C88.418,52.904 89.649,52.322 90.702,50.979 L93.030,52.636 C91.597,54.606 89.448,55.457 87.119,55.457 C82.238,55.457 78.745,52.143 78.745,47.195 C78.745,42.112 82.238,38.799 87.119,38.799 C89.269,38.799 91.105,39.492 92.672,41.306 L90.478,42.918 C89.313,41.687 88.239,41.351 87.142,41.351 C83.873,41.351 81.701,43.858 81.701,47.016 C81.701,50.396 83.873,52.904 87.142,52.904 ZM77.530,52.501 L78.463,55.054 L64.760,55.054 L64.760,39.202 L78.060,39.202 L77.127,41.754 L67.582,41.754 L67.582,45.650 L74.858,45.650 L74.858,48.202 L67.582,48.202 L67.582,52.501 L77.530,52.501 ZM50.048,42.896 L50.003,42.896 L50.003,55.054 L49.952,55.054 L47.182,55.054 L46.370,55.054 L38.534,42.896 L38.489,42.896 L38.489,55.054 L35.667,55.054 L35.667,39.202 L39.407,39.202 L47.086,50.979 L47.131,50.979 L47.131,39.202 L47.182,39.202 L49.952,39.202 L50.921,39.202 L58.601,50.979 L58.646,50.979 L58.646,39.202 L61.467,39.202 L61.467,55.054 L57.885,55.054 L50.048,42.896 ZM24.318,55.457 C19.437,55.457 15.944,52.143 15.944,47.195 C15.944,42.112 19.437,38.799 24.318,38.799 C29.266,38.709 32.759,42.023 32.759,47.105 C32.759,52.053 29.266,55.367 24.318,55.457 ZM24.340,41.351 C21.071,41.351 18.899,43.858 18.899,47.016 C18.899,50.396 21.071,52.904 24.340,52.904 C27.631,52.904 29.803,50.396 29.803,47.016 C29.803,43.858 27.631,41.351 24.340,41.351 ZM8.780,52.904 C10.057,52.904 11.288,52.322 12.340,50.979 L14.669,52.636 C13.236,54.606 11.086,55.457 8.758,55.457 C3.877,55.457 0.384,52.143 0.384,47.195 C0.384,42.112 3.877,38.799 8.758,38.799 C10.907,38.799 12.743,39.492 14.311,41.306 L12.116,42.918 C10.952,41.687 9.877,41.351 8.780,41.351 C5.511,41.351 3.340,43.858 3.340,47.016 C3.340,50.396 5.511,52.904 8.780,52.904 Z" class="cls-1"/>
  <path d="M51.228,0.076 L72.828,0.076 L72.828,21.676 L51.228,21.676 L51.228,0.076 Z" class="cls-2"/>
</svg>
