<svg xmlns="http://www.w3.org/2000/svg" xmlns:xlink="http://www.w3.org/1999/xlink" preserveAspectRatio="xMidYMid" width="72" height="75" viewBox="0 0 72 75">
  <defs>
    <style>
      .cls-1, .cls-2 {
        fill: #fff;
        fill-rule: evenodd;
      }

      .cls-2 {
        opacity: 0.5;
      }
    </style>
  </defs>
  <path d="M40.596,27.199 C36.883,25.071 30.744,24.006 22.177,24.006 L0.682,24.006 L0.682,74.550 L22.255,74.550 C31.133,74.550 37.337,73.537 40.869,71.513 C44.399,69.488 46.164,65.621 46.164,59.908 L46.164,39.348 C46.164,33.379 44.308,29.328 40.596,27.199 ZM31.367,64.854 C29.601,65.555 26.383,65.906 21.710,65.906 L12.831,65.906 L12.831,32.650 L22.099,32.650 C26.097,32.650 29.082,33.117 31.056,34.052 C33.028,34.987 34.015,36.675 34.015,39.114 L34.015,59.908 C34.015,62.506 33.132,64.153 31.367,64.854 Z" class="cls-1"/>
  <path d="M59.703,24.749 C53.076,24.749 47.703,19.376 47.703,12.748 C47.703,6.121 53.076,0.748 59.703,0.748 C66.330,0.748 71.703,6.121 71.703,12.748 C71.703,19.376 66.330,24.749 59.703,24.749 ZM59.703,5.749 C55.837,5.749 52.703,8.883 52.703,12.748 C52.703,16.614 55.837,19.748 59.703,19.748 C63.569,19.748 66.703,16.614 66.703,12.748 C66.703,8.883 63.569,5.749 59.703,5.749 Z" class="cls-2"/>
</svg>
