<svg xmlns="http://www.w3.org/2000/svg" xmlns:xlink="http://www.w3.org/1999/xlink" preserveAspectRatio="xMidYMid" width="34" height="48" viewBox="0 0 34 48">
  <defs>
    <style>
      .cls-1 {
        fill: #30282a;
        fill-rule: evenodd;
      }
    </style>
  </defs>
  <path d="M29.000,48.000 L5.000,48.000 C2.515,48.000 0.500,45.985 0.500,43.500 L0.500,4.500 C0.500,2.015 2.515,-0.000 5.000,-0.000 L29.000,-0.000 C31.485,-0.000 33.500,2.015 33.500,4.500 L33.500,43.500 C33.500,45.985 31.485,48.000 29.000,48.000 ZM30.500,6.000 C30.500,4.343 29.157,3.000 27.500,3.000 L6.500,3.000 C4.843,3.000 3.500,4.343 3.500,6.000 L3.500,42.000 C3.500,43.657 4.843,45.000 6.500,45.000 L27.500,45.000 C29.157,45.000 30.500,43.657 30.500,42.000 L30.500,6.000 ZM20.000,9.000 L14.000,9.000 C13.171,9.000 12.500,8.329 12.500,7.500 C12.500,6.671 13.171,6.000 14.000,6.000 L20.000,6.000 C20.828,6.000 21.500,6.671 21.500,7.500 C21.500,8.329 20.828,9.000 20.000,9.000 ZM17.000,36.000 C18.657,36.000 20.000,37.343 20.000,39.000 C20.000,40.657 18.657,42.000 17.000,42.000 C15.343,42.000 14.000,40.657 14.000,39.000 C14.000,37.343 15.343,36.000 17.000,36.000 Z" class="cls-1"/>
</svg>
