<svg xmlns="http://www.w3.org/2000/svg" xmlns:xlink="http://www.w3.org/1999/xlink" preserveAspectRatio="xMidYMid" width="132" height="88" viewBox="0 0 132 88">
  <defs>
    <style>
      .cls-1 {
        fill: #fff;
        fill-rule: evenodd;
      }
    </style>
  </defs>
  <path d="M128.619,76.935 C127.741,78.447 126.812,79.966 125.833,81.493 L125.833,87.217 L122.463,87.217 L122.463,81.536 C121.484,80.009 120.552,78.483 119.666,76.956 C118.781,75.431 117.927,73.861 117.106,72.248 L121.016,72.248 C121.476,73.282 121.972,74.309 122.505,75.328 C123.036,76.348 123.605,77.367 124.209,78.387 C124.814,77.367 125.391,76.348 125.939,75.328 C126.487,74.309 126.991,73.282 127.453,72.248 L131.168,72.248 C130.347,73.861 129.497,75.423 128.619,76.935 ZM111.148,87.217 L107.779,87.217 L107.779,75.120 L103.265,75.120 L103.265,72.248 L115.663,72.248 L115.663,75.120 L111.148,75.120 L111.148,87.217 ZM97.145,72.248 L100.514,72.248 L100.514,87.217 L97.145,87.217 L97.145,72.248 ZM88.411,87.519 C87.748,87.519 87.151,87.479 86.618,87.400 C86.085,87.321 85.614,87.223 85.203,87.108 C84.793,86.994 84.440,86.871 84.145,86.741 C83.850,86.612 83.601,86.490 83.400,86.375 L84.350,83.695 C84.796,83.940 85.347,84.160 86.003,84.354 C86.658,84.549 87.460,84.646 88.411,84.646 C88.886,84.646 89.278,84.607 89.588,84.527 C89.898,84.448 90.146,84.340 90.333,84.203 C90.520,84.066 90.650,83.905 90.722,83.717 C90.794,83.530 90.830,83.322 90.830,83.091 C90.830,82.601 90.600,82.195 90.139,81.870 C89.678,81.547 88.886,81.197 87.763,80.823 C87.273,80.650 86.784,80.452 86.294,80.229 C85.804,80.006 85.365,79.725 84.977,79.386 C84.588,79.048 84.271,78.638 84.026,78.155 C83.781,77.673 83.659,77.086 83.659,76.395 C83.659,75.704 83.789,75.081 84.048,74.527 C84.307,73.972 84.674,73.501 85.149,73.112 C85.625,72.723 86.200,72.424 86.877,72.215 C87.554,72.007 88.317,71.902 89.167,71.902 C90.175,71.902 91.046,72.010 91.780,72.226 C92.515,72.442 93.120,72.680 93.595,72.939 L92.623,75.596 C92.205,75.379 91.741,75.189 91.230,75.024 C90.718,74.858 90.103,74.775 89.383,74.775 C88.576,74.775 87.997,74.887 87.644,75.110 C87.291,75.333 87.115,75.675 87.115,76.136 C87.115,76.410 87.180,76.640 87.309,76.827 C87.439,77.014 87.623,77.183 87.860,77.335 C88.098,77.486 88.371,77.623 88.681,77.745 C88.990,77.867 89.332,77.993 89.707,78.123 C90.485,78.411 91.161,78.695 91.737,78.976 C92.313,79.257 92.792,79.585 93.174,79.959 C93.555,80.334 93.840,80.773 94.027,81.277 C94.214,81.781 94.308,82.393 94.308,83.112 C94.308,84.509 93.818,85.593 92.839,86.364 C91.859,87.133 90.384,87.519 88.411,87.519 ZM77.358,85.726 C77.076,85.222 76.787,84.733 76.491,84.257 C76.195,83.782 75.902,83.332 75.613,82.907 C75.324,82.483 75.034,82.097 74.745,81.752 L73.082,81.752 L73.082,87.217 L69.713,87.217 L69.713,72.464 C70.447,72.320 71.206,72.219 71.991,72.161 C72.776,72.104 73.478,72.075 74.097,72.075 C76.344,72.075 78.064,72.475 79.260,73.274 C80.455,74.073 81.052,75.315 81.052,76.999 C81.052,78.051 80.811,78.904 80.329,79.560 C79.846,80.215 79.152,80.729 78.245,81.104 C78.547,81.478 78.864,81.907 79.195,82.389 C79.526,82.871 79.854,83.375 80.178,83.901 C80.502,84.427 80.815,84.974 81.117,85.543 C81.420,86.111 81.701,86.669 81.960,87.217 L78.193,87.217 C77.918,86.727 77.640,86.230 77.358,85.726 ZM76.743,75.412 C76.189,75.103 75.372,74.948 74.292,74.948 C74.047,74.948 73.827,74.955 73.633,74.969 C73.439,74.983 73.255,74.998 73.082,75.012 L73.082,79.073 L74.033,79.073 C75.299,79.073 76.207,78.915 76.754,78.598 C77.301,78.282 77.575,77.742 77.575,76.978 C77.575,76.244 77.297,75.722 76.743,75.412 ZM55.997,72.248 L66.105,72.248 L66.105,75.077 L59.366,75.077 L59.366,78.015 L65.349,78.015 L65.349,80.780 L59.366,80.780 L59.366,84.387 L66.602,84.387 L66.602,87.217 L55.997,87.217 L55.997,72.248 ZM51.564,79.290 C51.045,80.615 50.499,81.955 49.923,83.308 C49.347,84.662 48.762,85.965 48.169,87.217 L44.955,87.217 C44.359,85.959 43.771,84.655 43.192,83.302 C42.612,81.950 42.062,80.612 41.540,79.288 C41.019,77.965 40.539,76.698 40.102,75.488 C39.664,74.278 39.286,73.198 38.969,72.248 L42.684,72.248 C42.964,73.115 43.275,74.047 43.618,75.046 C43.961,76.046 44.311,77.042 44.666,78.034 C45.022,79.026 45.363,79.978 45.689,80.886 C46.015,81.796 46.327,82.581 46.626,83.242 C46.907,82.585 47.214,81.802 47.548,80.893 C47.881,79.984 48.226,79.034 48.582,78.041 C48.938,77.049 49.287,76.053 49.629,75.053 C49.972,74.055 50.285,73.119 50.566,72.248 L54.153,72.248 C53.818,73.202 53.432,74.284 52.996,75.492 C52.559,76.700 52.082,77.965 51.564,79.290 ZM33.065,72.248 L36.434,72.248 L36.434,87.217 L33.065,87.217 L33.065,72.248 ZM23.560,82.141 C22.437,80.470 21.242,78.893 19.975,77.410 L19.975,87.217 L16.649,87.217 L16.649,72.248 L19.392,72.248 C19.867,72.723 20.392,73.306 20.969,73.998 C21.544,74.689 22.131,75.426 22.729,76.211 C23.326,76.996 23.920,77.810 24.511,78.652 C25.101,79.494 25.656,80.304 26.174,81.082 L26.174,72.248 L29.522,72.248 L29.522,87.217 L26.692,87.217 C25.728,85.503 24.684,83.811 23.560,82.141 ZM11.673,85.866 C11.169,86.392 10.528,86.799 9.751,87.087 C8.973,87.375 8.052,87.519 6.986,87.519 C5.935,87.519 5.028,87.371 4.264,87.076 C3.501,86.781 2.871,86.371 2.375,85.845 C1.878,85.320 1.510,84.693 1.273,83.966 C1.035,83.239 0.917,82.436 0.917,81.557 L0.917,72.248 L4.286,72.248 L4.286,81.277 C4.286,81.881 4.354,82.396 4.491,82.821 C4.628,83.246 4.815,83.592 5.053,83.858 C5.291,84.124 5.578,84.315 5.917,84.430 C6.255,84.545 6.626,84.603 7.029,84.603 C7.850,84.603 8.516,84.351 9.027,83.847 C9.538,83.343 9.794,82.486 9.794,81.277 L9.794,72.248 L13.164,72.248 L13.164,81.557 C13.164,82.436 13.041,83.242 12.796,83.977 C12.552,84.711 12.177,85.341 11.673,85.866 Z" class="cls-1"/>
  <path d="M39.064,54.816 L39.064,0.817 L93.064,0.817 L93.064,54.816 L39.064,54.816 ZM93.059,8.622 L86.147,8.622 C83.555,8.622 82.475,9.756 82.475,12.294 L82.475,33.029 C82.475,38.104 79.289,41.020 74.484,41.020 C69.678,41.020 66.492,38.104 66.492,33.083 L66.492,12.294 C66.492,9.756 65.412,8.622 62.820,8.622 L55.908,8.622 L55.908,14.616 L58.230,14.616 C58.986,14.616 59.418,15.047 59.418,15.803 L59.418,33.299 C59.418,41.776 65.412,47.608 74.538,47.608 C83.555,47.608 89.549,41.776 89.549,33.299 L89.549,15.803 C89.549,15.047 89.981,14.616 90.737,14.616 L93.059,14.616 L93.059,8.622 Z" class="cls-1"/>
</svg>
